<svg width="98" height="14" viewBox="0 0 98 14" fill="none" xmlns="http://www.w3.org/2000/svg">
<path d="M9.07129 9.00977H10.1523C10.0645 9.87109 9.82715 10.6152 9.44043 11.2422C9.05371 11.8633 8.52637 12.3408 7.8584 12.6748C7.19043 13.0088 6.38477 13.1758 5.44141 13.1758C4.71484 13.1758 4.05566 13.0381 3.46387 12.7627C2.87793 12.4873 2.37402 12.0977 1.95215 11.5938C1.53027 11.084 1.20508 10.4746 0.976562 9.76562C0.748047 9.05664 0.633789 8.26855 0.633789 7.40137V5.80176C0.633789 4.93457 0.748047 4.14941 0.976562 3.44629C1.20508 2.7373 1.5332 2.12793 1.96094 1.61816C2.38867 1.1084 2.90137 0.71582 3.49902 0.44043C4.09668 0.165039 4.77051 0.0273438 5.52051 0.0273438C6.42871 0.0273438 7.21387 0.194336 7.87598 0.52832C8.53809 0.856445 9.05957 1.33105 9.44043 1.95215C9.82715 2.57324 10.0645 3.32324 10.1523 4.20215H9.07129C8.98926 3.51074 8.80762 2.9248 8.52637 2.44434C8.24512 1.96387 7.85547 1.59766 7.35742 1.3457C6.86523 1.08789 6.25293 0.958984 5.52051 0.958984C4.92285 0.958984 4.38965 1.07324 3.9209 1.30176C3.45215 1.53027 3.05371 1.8584 2.72559 2.28613C2.39746 2.70801 2.14551 3.21484 1.96973 3.80664C1.7998 4.39844 1.71484 5.05762 1.71484 5.78418V7.40137C1.71484 8.10449 1.79688 8.75195 1.96094 9.34375C2.125 9.93555 2.36523 10.4482 2.68164 10.8818C3.00391 11.3154 3.39648 11.6523 3.85938 11.8926C4.32227 12.1328 4.84961 12.2529 5.44141 12.2529C6.19727 12.2529 6.82715 12.1328 7.33105 11.8926C7.84082 11.6465 8.23633 11.2832 8.51758 10.8027C8.79883 10.3223 8.9834 9.72461 9.07129 9.00977ZM13.5889 5.06348V13H12.543V3.49023H13.5625L13.5889 5.06348ZM16.9551 3.41992L16.9287 4.38672C16.8115 4.36914 16.6973 4.35449 16.5859 4.34277C16.4746 4.33105 16.3545 4.3252 16.2256 4.3252C15.7686 4.3252 15.3672 4.41016 15.0215 4.58008C14.6816 4.74414 14.3945 4.97559 14.1602 5.27441C13.9258 5.56738 13.7471 5.91309 13.624 6.31152C13.501 6.7041 13.4307 7.12598 13.4131 7.57715L13.0264 7.72656C13.0264 7.10547 13.0908 6.52832 13.2197 5.99512C13.3486 5.46191 13.5449 4.99609 13.8086 4.59766C14.0781 4.19336 14.415 3.87988 14.8193 3.65723C15.2295 3.42871 15.71 3.31445 16.2607 3.31445C16.3955 3.31445 16.5273 3.32617 16.6562 3.34961C16.791 3.36719 16.8906 3.39063 16.9551 3.41992ZM22.1055 13.1758C21.4844 13.1758 20.9131 13.0615 20.3916 12.833C19.876 12.6045 19.4248 12.2822 19.0381 11.8662C18.6572 11.4502 18.3613 10.958 18.1504 10.3896C17.9453 9.81543 17.8428 9.18848 17.8428 8.50879V8.13086C17.8428 7.39844 17.9512 6.73633 18.168 6.14453C18.3848 5.55273 18.6836 5.0459 19.0645 4.62402C19.4453 4.20215 19.8789 3.87988 20.3652 3.65723C20.8574 3.42871 21.373 3.31445 21.9121 3.31445C22.5156 3.31445 23.0518 3.42285 23.5205 3.63965C23.9893 3.85059 24.3818 4.15234 24.6982 4.54492C25.0205 4.93164 25.2637 5.3916 25.4277 5.9248C25.5918 6.45215 25.6738 7.03516 25.6738 7.67383V8.31543H18.4756V7.41895H24.6279V7.2959C24.6162 6.7627 24.5078 6.26465 24.3027 5.80176C24.1035 5.33301 23.8047 4.95215 23.4062 4.65918C23.0078 4.36621 22.5098 4.21973 21.9121 4.21973C21.4668 4.21973 21.0566 4.31348 20.6816 4.50098C20.3125 4.68848 19.9932 4.95801 19.7236 5.30957C19.46 5.65527 19.2549 6.06836 19.1084 6.54883C18.9678 7.02344 18.8975 7.55078 18.8975 8.13086V8.50879C18.8975 9.03613 18.9736 9.52832 19.126 9.98535C19.2842 10.4365 19.5068 10.835 19.7939 11.1807C20.0869 11.5264 20.4326 11.7959 20.8311 11.9893C21.2295 12.1826 21.6689 12.2793 22.1494 12.2793C22.7119 12.2793 23.21 12.1768 23.6436 11.9717C24.0771 11.7607 24.4668 11.4297 24.8125 10.9785L25.4717 11.4883C25.2666 11.793 25.0088 12.0742 24.6982 12.332C24.3936 12.5898 24.0273 12.7949 23.5996 12.9473C23.1719 13.0996 22.6738 13.1758 22.1055 13.1758ZM33.5312 11.2949V6.39062C33.5312 5.93945 33.4375 5.5498 33.25 5.22168C33.0625 4.89355 32.7871 4.6416 32.4238 4.46582C32.0605 4.29004 31.6123 4.20215 31.0791 4.20215C30.5869 4.20215 30.1475 4.29004 29.7607 4.46582C29.3799 4.63574 29.0781 4.86719 28.8555 5.16016C28.6387 5.44727 28.5303 5.7666 28.5303 6.11816L27.4756 6.10938C27.4756 5.75195 27.5635 5.40625 27.7393 5.07227C27.915 4.73828 28.1641 4.43945 28.4863 4.17578C28.8086 3.91211 29.1924 3.7041 29.6377 3.55176C30.0889 3.39355 30.584 3.31445 31.123 3.31445C31.8027 3.31445 32.4004 3.42871 32.916 3.65723C33.4375 3.88574 33.8447 4.22852 34.1377 4.68555C34.4307 5.14258 34.5771 5.7168 34.5771 6.4082V11.0049C34.5771 11.333 34.6006 11.6729 34.6475 12.0244C34.7002 12.376 34.7734 12.666 34.8672 12.8945V13H33.751C33.6807 12.7891 33.625 12.5254 33.584 12.209C33.5488 11.8867 33.5312 11.582 33.5312 11.2949ZM33.7773 7.46289L33.7949 8.27148H31.7295C31.1904 8.27148 30.707 8.32129 30.2793 8.4209C29.8574 8.51465 29.5 8.65527 29.207 8.84277C28.9141 9.02441 28.6885 9.24414 28.5303 9.50195C28.3779 9.75977 28.3018 10.0527 28.3018 10.3809C28.3018 10.7207 28.3867 11.0312 28.5566 11.3125C28.7324 11.5938 28.9785 11.8193 29.2949 11.9893C29.6172 12.1533 29.998 12.2354 30.4375 12.2354C31.0234 12.2354 31.5391 12.127 31.9844 11.9102C32.4355 11.6934 32.8076 11.4092 33.1006 11.0576C33.3936 10.7061 33.5898 10.3223 33.6895 9.90625L34.1465 10.5127C34.0703 10.8057 33.9297 11.1074 33.7246 11.418C33.5254 11.7227 33.2646 12.0098 32.9424 12.2793C32.6201 12.543 32.2393 12.7598 31.7998 12.9297C31.3662 13.0938 30.874 13.1758 30.3232 13.1758C29.7021 13.1758 29.1602 13.0586 28.6973 12.8242C28.2402 12.5898 27.8828 12.2705 27.625 11.8662C27.373 11.4561 27.2471 10.9932 27.2471 10.4775C27.2471 10.0088 27.3467 9.58984 27.5459 9.2207C27.7451 8.8457 28.0322 8.5293 28.4072 8.27148C28.7881 8.00781 29.2451 7.80859 29.7783 7.67383C30.3174 7.5332 30.9209 7.46289 31.5889 7.46289H33.7773ZM40.9932 3.49023V4.35156H36.2295V3.49023H40.9932ZM37.9785 1.04688H39.0244V10.6885C39.0244 11.1279 39.083 11.459 39.2002 11.6816C39.3174 11.9043 39.4697 12.0537 39.6572 12.1299C39.8447 12.2061 40.0469 12.2441 40.2637 12.2441C40.4219 12.2441 40.5742 12.2354 40.7207 12.2178C40.8672 12.1943 40.999 12.1709 41.1162 12.1475L41.1602 13.0352C41.0312 13.0762 40.8643 13.1084 40.6592 13.1318C40.4541 13.1611 40.249 13.1758 40.0439 13.1758C39.6396 13.1758 39.2822 13.1025 38.9717 12.9561C38.6611 12.8037 38.418 12.5459 38.2422 12.1826C38.0664 11.8135 37.9785 11.3125 37.9785 10.6797V1.04688ZM44.3682 3.49023V13H43.3223V3.49023H44.3682ZM43.1377 0.739258C43.1377 0.540039 43.1992 0.373047 43.3223 0.238281C43.4512 0.0976562 43.627 0.0273438 43.8496 0.0273438C44.0723 0.0273438 44.248 0.0976562 44.377 0.238281C44.5117 0.373047 44.5791 0.540039 44.5791 0.739258C44.5791 0.932617 44.5117 1.09961 44.377 1.24023C44.248 1.375 44.0723 1.44238 43.8496 1.44238C43.627 1.44238 43.4512 1.375 43.3223 1.24023C43.1992 1.09961 43.1377 0.932617 43.1377 0.739258ZM50.0459 11.9893L53.0957 3.49023H54.1768L50.6172 13H49.8525L50.0459 11.9893ZM47.2861 3.49023L50.3711 12.0156L50.5381 13H49.7646L46.1963 3.49023H47.2861ZM59.459 13.1758C58.8379 13.1758 58.2666 13.0615 57.7451 12.833C57.2295 12.6045 56.7783 12.2822 56.3916 11.8662C56.0107 11.4502 55.7148 10.958 55.5039 10.3896C55.2988 9.81543 55.1963 9.18848 55.1963 8.50879V8.13086C55.1963 7.39844 55.3047 6.73633 55.5215 6.14453C55.7383 5.55273 56.0371 5.0459 56.418 4.62402C56.7988 4.20215 57.2324 3.87988 57.7188 3.65723C58.2109 3.42871 58.7266 3.31445 59.2656 3.31445C59.8691 3.31445 60.4053 3.42285 60.874 3.63965C61.3428 3.85059 61.7354 4.15234 62.0518 4.54492C62.374 4.93164 62.6172 5.3916 62.7812 5.9248C62.9453 6.45215 63.0273 7.03516 63.0273 7.67383V8.31543H55.8291V7.41895H61.9814V7.2959C61.9697 6.7627 61.8613 6.26465 61.6562 5.80176C61.457 5.33301 61.1582 4.95215 60.7598 4.65918C60.3613 4.36621 59.8633 4.21973 59.2656 4.21973C58.8203 4.21973 58.4102 4.31348 58.0352 4.50098C57.666 4.68848 57.3467 4.95801 57.0771 5.30957C56.8135 5.65527 56.6084 6.06836 56.4619 6.54883C56.3213 7.02344 56.251 7.55078 56.251 8.13086V8.50879C56.251 9.03613 56.3271 9.52832 56.4795 9.98535C56.6377 10.4365 56.8604 10.835 57.1475 11.1807C57.4404 11.5264 57.7861 11.7959 58.1846 11.9893C58.583 12.1826 59.0225 12.2793 59.5029 12.2793C60.0654 12.2793 60.5635 12.1768 60.9971 11.9717C61.4307 11.7607 61.8203 11.4297 62.166 10.9785L62.8252 11.4883C62.6201 11.793 62.3623 12.0742 62.0518 12.332C61.7471 12.5898 61.3809 12.7949 60.9531 12.9473C60.5254 13.0996 60.0273 13.1758 59.459 13.1758ZM73.6797 0.203125V13H72.6074V0.203125H73.6797ZM78.0654 0.203125V1.13477H68.2305V0.203125H78.0654ZM81.0713 3.49023V13H80.0254V3.49023H81.0713ZM79.8408 0.739258C79.8408 0.540039 79.9023 0.373047 80.0254 0.238281C80.1543 0.0976562 80.3301 0.0273438 80.5527 0.0273438C80.7754 0.0273438 80.9512 0.0976562 81.0801 0.238281C81.2148 0.373047 81.2822 0.540039 81.2822 0.739258C81.2822 0.932617 81.2148 1.09961 81.0801 1.24023C80.9512 1.375 80.7754 1.44238 80.5527 1.44238C80.3301 1.44238 80.1543 1.375 80.0254 1.24023C79.9023 1.09961 79.8408 0.932617 79.8408 0.739258ZM84.9385 5.45898V13H83.8838V3.49023H84.8945L84.9385 5.45898ZM84.7451 7.65625L84.2354 7.39258C84.2705 6.83008 84.376 6.30273 84.5518 5.81055C84.7334 5.31836 84.9854 4.88477 85.3076 4.50977C85.6299 4.13477 86.0166 3.8418 86.4678 3.63086C86.9189 3.41992 87.4316 3.31445 88.0059 3.31445C88.4688 3.31445 88.8877 3.37891 89.2627 3.50781C89.6436 3.63086 89.9658 3.82715 90.2295 4.09668C90.499 4.36035 90.707 4.70605 90.8535 5.13379C91 5.56152 91.0732 6.07422 91.0732 6.67188V13H90.0273V6.70703C90.0273 6.07422 89.9277 5.5791 89.7285 5.22168C89.5352 4.86426 89.2627 4.60938 88.9111 4.45703C88.5654 4.30469 88.1641 4.22852 87.707 4.22852C87.168 4.22852 86.7109 4.33984 86.3359 4.5625C85.9668 4.7793 85.665 5.06348 85.4307 5.41504C85.2021 5.76074 85.0322 6.13281 84.9209 6.53125C84.8096 6.92383 84.751 7.29883 84.7451 7.65625ZM91.0645 6.83008L90.3613 6.84766C90.3906 6.38477 90.4961 5.94238 90.6777 5.52051C90.8652 5.09863 91.1201 4.72363 91.4424 4.39551C91.7646 4.06152 92.1484 3.79785 92.5938 3.60449C93.0449 3.41113 93.5518 3.31445 94.1143 3.31445C94.6064 3.31445 95.0459 3.38184 95.4326 3.5166C95.8193 3.64551 96.1445 3.85352 96.4082 4.14062C96.6777 4.42188 96.8828 4.78223 97.0234 5.22168C97.1641 5.66113 97.2344 6.18848 97.2344 6.80371V13H96.1797V6.79492C96.1797 6.12109 96.0801 5.59961 95.8809 5.23047C95.6875 4.85547 95.418 4.59473 95.0723 4.44824C94.7266 4.30176 94.3223 4.22852 93.8594 4.22852C93.4023 4.23438 93.001 4.31934 92.6553 4.4834C92.3096 4.6416 92.0195 4.85254 91.7852 5.11621C91.5566 5.37402 91.3809 5.65234 91.2578 5.95117C91.1406 6.25 91.0762 6.54297 91.0645 6.83008Z" fill="white"/>
</svg>
